<?xml version="1.0" standalone="no"?>
<!DOCTYPE svg PUBLIC "-//W3C//DTD SVG 20010904//EN"
 "http://www.w3.org/TR/2001/REC-SVG-20010904/DTD/svg10.dtd">
<svg version="1.0" xmlns="http://www.w3.org/2000/svg"
 width="240.000000pt" height="240.000000pt" viewBox="0 0 240.000000 240.000000"
 preserveAspectRatio="xMidYMid meet">
<metadata>
Created by potrace 1.14, written by Peter Selinger 2001-2017
</metadata>
<g transform="translate(0.000000,240.000000) scale(0.100000,-0.100000)"
fill="#000000" stroke="none">
<path d="M490 2376 c-78 -27 -131 -57 -172 -95 -21 -19 -51 -33 -90 -41 -33
-7 -66 -19 -73 -27 -8 -7 -17 -13 -22 -13 -16 0 -72 -57 -102 -105 -31 -48
-31 -50 -31 -179 0 -126 1 -133 30 -182 45 -80 124 -136 209 -150 41 -7 53
-20 27 -30 -8 -3 -17 -16 -20 -29 -4 -17 -17 -25 -49 -33 -116 -30 -198 -141
-193 -263 4 -119 77 -210 199 -249 20 -6 37 -15 37 -19 0 -4 14 -24 32 -44 31
-34 32 -37 33 -138 2 -89 -1 -106 -17 -124 -58 -61 -78 -187 -44 -268 25 -57
80 -112 138 -137 62 -27 108 -30 171 -14 45 12 117 51 117 65 0 3 48 6 108 5
82 0 120 5 163 20 l56 20 34 -38 c19 -21 49 -49 66 -61 18 -12 33 -29 33 -37
1 -31 40 -100 76 -134 21 -20 61 -44 89 -55 95 -34 175 -23 252 35 41 31 93
106 93 133 0 12 5 21 10 21 9 0 11 -5 10 -25 -1 -17 38 -76 72 -108 51 -48 98
-69 170 -74 98 -8 207 58 249 150 10 23 19 50 19 59 0 10 10 23 23 29 36 19
112 104 146 164 43 75 64 172 58 260 -7 92 -18 129 -57 203 -62 117 -179 208
-309 240 -117 28 -210 20 -319 -29 l-64 -29 -41 22 c-106 54 -246 66 -359 33
l-57 -18 -27 33 c-15 18 -34 38 -41 46 -10 10 -12 23 -5 46 13 51 7 754 -7
812 -21 87 -62 158 -130 227 -64 64 -161 124 -212 131 -13 2 -28 6 -34 9 -5 4
-48 6 -95 7 -63 0 -101 -5 -150 -22z"/>
</g>
</svg>
